<svg width="8" height="8" viewBox="0 0 8 8" fill="none" xmlns="http://www.w3.org/2000/svg">
<path d="M5.91599 2.62933H3.28666C2.92363 2.62933 2.62933 2.92362 2.62933 3.28666V5.91598C2.62933 6.27902 2.92363 6.57331 3.28666 6.57331H5.91599C6.27902 6.57331 6.57332 6.27902 6.57332 5.91598V3.28666C6.57332 2.92362 6.27902 2.62933 5.91599 2.62933Z" stroke="#C5C5C5" stroke-width="0.657331" stroke-linecap="round" stroke-linejoin="round"/>
<path d="M5.25866 2.62932V1.97199C5.25866 1.79766 5.1894 1.63046 5.06613 1.50719C4.94285 1.38391 4.77566 1.31466 4.60132 1.31466H1.972C1.79766 1.31466 1.63047 1.38391 1.50719 1.50719C1.38392 1.63046 1.31467 1.79766 1.31467 1.97199V4.60132C1.31467 4.77565 1.38392 4.94285 1.50719 5.06612C1.63047 5.18939 1.79766 5.25865 1.972 5.25865H2.62933" stroke="#C5C5C5" stroke-width="0.657331" stroke-linecap="round" stroke-linejoin="round"/>
</svg>
