<svg width="3" height="3" viewBox="0 0 3 3" fill="none" xmlns="http://www.w3.org/2000/svg">
<path d="M2.151 1.18305C2.1247 0.993785 2.0369 0.818419 1.90112 0.683964C1.76535 0.54951 1.58913 0.463425 1.39962 0.438972C1.21011 0.414519 1.01782 0.453054 0.85236 0.54864C0.686903 0.644226 0.557464 0.791561 0.483981 0.967949M0.430206 0.537751V0.967949H0.860405" stroke="#C5C5C5" stroke-width="0.215099" stroke-linecap="round" stroke-linejoin="round"/>
<path d="M0.430206 1.39815C0.456509 1.58741 0.544309 1.76278 0.680083 1.89723C0.815857 2.03169 0.992071 2.11777 1.18158 2.14222C1.37109 2.16668 1.56339 2.12814 1.72885 2.03256C1.8943 1.93697 2.02374 1.78963 2.09722 1.61325M2.151 2.04344V1.61325H1.7208" stroke="#C5C5C5" stroke-width="0.215099" stroke-linecap="round" stroke-linejoin="round"/>
</svg>
