<svg width="11" height="13" viewBox="0 0 11 13" fill="none" xmlns="http://www.w3.org/2000/svg">
<path fill-rule="evenodd" clip-rule="evenodd" d="M8.0002 2H10.0002H11.0002V3H10.0002V12L9.0002 13H2.00024L1.00024 12V3H0.000244141V2H3.00024V1C3.00024 0.73478 3.10555 0.48038 3.29309 0.29285C3.48063 0.10531 3.73503 0 4.00024 0H7.00024C7.26546 0 7.51986 0.10531 7.7074 0.29285C7.89493 0.48038 8.0002 0.73478 8.0002 1V2ZM7.00024 1H4.00024V2H7.00024V1ZM2.00024 12H9.0002V3H2.00024V12ZM4.00024 4H3.00024V11H4.00024V4ZM5.00024 4H6.00024V11H5.00024V4ZM7.00024 4H8.0002V11H7.00024V4Z" fill="#C5C5C5"/>
</svg>
