<svg width="108" height="108" viewBox="0 0 108 108" fill="none" xmlns="http://www.w3.org/2000/svg">
<path d="M17.9829 31.47H89.9144" stroke="#C5C5C5" stroke-width="8.99144" stroke-linecap="round" stroke-linejoin="round"/>
<path d="M44.9572 49.4529V76.4272" stroke="#C5C5C5" stroke-width="8.99144" stroke-linecap="round" stroke-linejoin="round"/>
<path d="M62.9401 49.4529V76.4272" stroke="#C5C5C5" stroke-width="8.99144" stroke-linecap="round" stroke-linejoin="round"/>
<path d="M22.4786 31.47L26.9743 85.4187C26.9743 87.8033 27.9216 90.0904 29.6079 91.7766C31.2941 93.4628 33.5811 94.4101 35.9658 94.4101H71.9315C74.3162 94.4101 76.6032 93.4628 78.2894 91.7766C79.9757 90.0904 80.923 87.8033 80.923 85.4187L85.4187 31.47" stroke="#C5C5C5" stroke-width="8.99144" stroke-linecap="round" stroke-linejoin="round"/>
<path d="M40.4615 31.47V17.9829C40.4615 16.7905 40.9351 15.647 41.7783 14.8039C42.6214 13.9608 43.7649 13.4872 44.9572 13.4872H62.9401C64.1324 13.4872 65.2759 13.9608 66.119 14.8039C66.9622 15.647 67.4358 16.7905 67.4358 17.9829V31.47" stroke="#C5C5C5" stroke-width="8.99144" stroke-linecap="round" stroke-linejoin="round"/>
</svg>
